<?xml version="1.0" ?><svg id="Layer_1" style="enable-background:new 0 0 200 200;" version="1.1" viewBox="0 0 200 200" xml:space="preserve" xmlns="http://www.w3.org/2000/svg" xmlns:xlink="http://www.w3.org/1999/xlink"><style type="text/css">
	.st0{fill:url(#SVGID_1_);}
	.st1{fill:url(#SVGID_2_);}
	.st2{fill:url(#SVGID_3_);}
	.st3{fill:url(#SVGID_4_);}
	.st4{fill:url(#SVGID_5_);}
</style><g><linearGradient gradientUnits="userSpaceOnUse" id="SVGID_1_" x1="165.3336" x2="19.7713" y1="167.5844" y2="22.0221"><stop offset="0" style="stop-color:#007FE2"/><stop offset="1" style="stop-color:#39D3B8"/></linearGradient><path class="st0" d="M145.098,60.352c-6.087-6.117-13.185-10.853-21.098-14.077c-7.642-3.115-15.717-4.694-24-4.694   s-16.358,1.579-24,4.694c-7.913,3.225-15.011,7.961-21.098,14.078c-6.085,6.114-10.796,13.246-14.005,21.196   c-3.097,7.676-4.667,15.785-4.667,24.103s1.57,16.427,4.667,24.103c0.546,1.352,1.847,2.174,3.221,2.174   c0.432,0,0.872-0.081,1.298-0.253c1.778-0.717,2.638-2.74,1.921-4.519c-2.762-6.846-4.163-14.081-4.163-21.504   c0-7.423,1.4-14.658,4.163-21.504c2.859-7.086,7.06-13.443,12.487-18.897c5.427-5.453,11.751-9.673,18.796-12.545   c6.807-2.774,14-4.18,21.38-4.18s14.573,1.407,21.38,4.181c7.045,2.871,13.369,7.091,18.795,12.544   c5.428,5.455,9.629,11.813,12.487,18.897c2.763,6.845,4.163,14.081,4.163,21.504c0,7.423-1.4,14.659-4.163,21.504   c-0.717,1.778,0.142,3.802,1.921,4.519c1.778,0.716,3.8-0.143,4.519-1.921c3.097-7.676,4.668-15.784,4.668-24.103   s-1.571-16.427-4.668-24.103C155.895,73.599,151.184,66.467,145.098,60.352z"/><linearGradient gradientUnits="userSpaceOnUse" id="SVGID_2_" x1="221.4663" x2="75.904" y1="111.4518" y2="-34.1105"><stop offset="0" style="stop-color:#007FE2"/><stop offset="1" style="stop-color:#39D3B8"/></linearGradient><path class="st1" d="M173.989,59.134l-27.693-27.831c-1.352-1.36-3.55-1.365-4.91-0.012c-1.36,1.352-1.365,3.551-0.012,4.91   l27.693,27.831c0.678,0.682,1.569,1.023,2.461,1.023c0.886,0,1.771-0.337,2.449-1.011   C175.336,62.691,175.342,60.493,173.989,59.134z"/><linearGradient gradientUnits="userSpaceOnUse" id="SVGID_3_" x1="163.785" x2="18.2227" y1="169.133" y2="23.5707"><stop offset="0" style="stop-color:#007FE2"/><stop offset="1" style="stop-color:#39D3B8"/></linearGradient><path class="st2" d="M58.614,31.29c-1.359-1.352-3.558-1.348-4.91,0.012L26.011,59.134c-1.353,1.359-1.348,3.558,0.012,4.91   c0.677,0.674,1.563,1.011,2.449,1.011c0.891,0,1.783-0.341,2.461-1.023L58.626,36.2C59.979,34.841,59.974,32.642,58.614,31.29z"/><linearGradient gradientUnits="userSpaceOnUse" id="SVGID_4_" x1="135.817" x2="-9.7453" y1="197.101" y2="51.5387"><stop offset="0" style="stop-color:#007FE2"/><stop offset="1" style="stop-color:#39D3B8"/></linearGradient><path class="st3" d="M146.147,146.156c-0.725-0.73-1.694-1.056-2.647-1.005c-1.153-0.296-2.424-0.005-3.324,0.9   c-5.426,5.452-11.75,9.673-18.796,12.545c-6.807,2.774-14,4.18-21.38,4.18s-14.573-1.407-21.38-4.18   c-7.046-2.872-13.37-7.093-18.796-12.545c-0.514-0.518-1.152-0.836-1.819-0.961c-0.036-0.007-0.073-0.005-0.109-0.011   c-0.178-0.028-0.357-0.051-0.538-0.05c-0.895-0.003-1.791,0.337-2.472,1.022l-13.215,13.281c-1.353,1.359-1.348,3.558,0.012,4.91   c0.677,0.675,1.563,1.011,2.449,1.011c0.891,0,1.783-0.341,2.461-1.023l10.831-10.885c5.498,4.967,11.73,8.892,18.575,11.682   c7.642,3.115,15.717,4.694,24,4.694s16.358-1.579,24-4.694c7.048-2.872,13.445-6.95,19.06-12.128l11.38,11.436   c0.678,0.682,1.569,1.023,2.461,1.023c0.886,0,1.772-0.337,2.449-1.011c1.36-1.352,1.365-3.551,0.012-4.91L146.147,146.156z"/><linearGradient gradientUnits="userSpaceOnUse" id="SVGID_5_" x1="160.1863" x2="14.624" y1="172.7317" y2="27.1694"><stop offset="0" style="stop-color:#007FE2"/><stop offset="1" style="stop-color:#39D3B8"/></linearGradient><path class="st4" d="M78.836,131.841l23.615-23.733c0.002-0.002,0.005-0.004,0.007-0.007l0.003-0.003   c0.012-0.012,0.019-0.026,0.031-0.038c0.147-0.151,0.281-0.314,0.399-0.49c0.056-0.083,0.094-0.174,0.141-0.26   c0.061-0.111,0.128-0.219,0.176-0.337c0.046-0.111,0.072-0.226,0.105-0.34c0.031-0.103,0.069-0.202,0.09-0.308   c0.037-0.187,0.051-0.376,0.057-0.566c0.001-0.037,0.011-0.072,0.011-0.11V72.074c0-1.918-1.554-3.472-3.472-3.472   s-3.472,1.554-3.472,3.472v32.143l-22.614,22.726c-1.353,1.359-1.348,3.558,0.012,4.91c0.677,0.674,1.563,1.011,2.449,1.011   C77.266,132.865,78.158,132.524,78.836,131.841z"/></g></svg>